<svg width="717" height="597" viewBox="0 0 717 597" fill="none" xmlns="http://www.w3.org/2000/svg">
<g clip-path="url(#clip0_20_1835)">
<path d="M391.502 452.812L352.718 596.462H224.013L246.466 513.292C300.234 509.923 351.311 488.624 391.502 452.812Z" fill="#ACFFFC"/>
<path d="M717 196.476L624.966 537.333L550.52 336.444L588.309 196.476H717Z" fill="#ACFFFC"/>
<path d="M608.855 597H480.164L404.379 391.904C367.521 433.559 316.8 460.482 261.595 467.694L258.693 468.067C252.411 468.793 246.051 469.253 239.612 469.446C237.084 469.529 234.528 469.57 231.971 469.57C184.153 469.609 137.523 454.7 98.6247 426.937C68.0305 405.081 43.1158 376.239 25.9593 342.817C8.80286 309.394 -0.0978995 272.361 -0.000304639 234.806C-0.000304639 228.254 0.262216 221.758 0.787258 215.358C4.65259 166.991 23.3904 120.997 54.4383 83.6661C96.9943 32.5092 160.732 0 231.971 0C334.576 0 421.595 67.4046 452.199 160.85H322.735C313.063 135.43 295.018 115.734 270.631 107.334C219.509 89.7624 159.778 128.533 137.201 193.938C136.911 194.779 136.635 195.621 136.359 196.476C134.323 202.66 132.68 208.967 131.44 215.358C120.027 273.453 143.336 328.54 188.849 344.195C192.632 345.504 196.513 346.514 200.455 347.216C239.294 354.112 281.021 331.064 306.707 290.197C308.641 287.135 310.493 283.949 312.234 280.694H218.459V280.583L241.174 196.448H460.862V196.573L489.422 273.88H489.27L534.479 395.848L551.625 442.109L608.855 597Z" fill="#ACFFFC"/>
</g>
<defs>
<clipPath id="clip0_20_1835">
<rect width="717" height="597" fill="white"/>
</clipPath>
</defs>
</svg>
